<mxfile host="Electron" modified="2023-10-26T21:21:43.786Z" agent="Mozilla/5.0 (Windows NT 10.0; Win64; x64) AppleWebKit/537.36 (KHTML, like Gecko) draw.io/21.4.0 Chrome/112.0.5615.204 Electron/24.5.1 Safari/537.36" etag="6NTWsh7ffIn05YRYO7PX" version="21.4.0" type="device" pages="3">
  <diagram name="MainView" id="d7hVIi9gM0834bt1OSRN">
    <mxGraphModel dx="714" dy="423" grid="1" gridSize="10" guides="1" tooltips="1" connect="1" arrows="1" fold="1" page="1" pageScale="1" pageWidth="827" pageHeight="1169" math="0" shadow="0">
      <root>
        <mxCell id="0" />
        <mxCell id="1" parent="0" />
        <mxCell id="CbHZo5Q5kGhW6boUcu4r-1" value="" style="rounded=0;whiteSpace=wrap;html=1;fillColor=#dae8fc;strokeColor=#6c8ebf;" vertex="1" parent="1">
          <mxGeometry x="100" y="80" width="620" height="480" as="geometry" />
        </mxCell>
        <mxCell id="CbHZo5Q5kGhW6boUcu4r-3" style="rounded=0;orthogonalLoop=1;jettySize=auto;html=1;exitX=0;exitY=0.5;exitDx=0;exitDy=0;entryX=0.001;entryY=0.062;entryDx=0;entryDy=0;entryPerimeter=0;strokeWidth=1;endArrow=none;endFill=0;" edge="1" parent="1" source="CbHZo5Q5kGhW6boUcu4r-2" target="CbHZo5Q5kGhW6boUcu4r-1">
          <mxGeometry relative="1" as="geometry" />
        </mxCell>
        <mxCell id="CbHZo5Q5kGhW6boUcu4r-2" value="&lt;pre style=&quot;margin-top: 0px; margin-bottom: 0px;&quot;&gt;menuBar&lt;/pre&gt;" style="rounded=1;whiteSpace=wrap;html=1;fillColor=#f8cecc;strokeColor=#b85450;" vertex="1" parent="1">
          <mxGeometry x="130" y="90" width="560" height="40" as="geometry" />
        </mxCell>
        <mxCell id="CbHZo5Q5kGhW6boUcu4r-7" value="" style="endArrow=none;html=1;rounded=0;exitX=1;exitY=0.5;exitDx=0;exitDy=0;entryX=1.003;entryY=0.064;entryDx=0;entryDy=0;entryPerimeter=0;" edge="1" parent="1" source="CbHZo5Q5kGhW6boUcu4r-2" target="CbHZo5Q5kGhW6boUcu4r-1">
          <mxGeometry width="50" height="50" relative="1" as="geometry">
            <mxPoint x="550" y="90" as="sourcePoint" />
            <mxPoint x="600" y="40" as="targetPoint" />
          </mxGeometry>
        </mxCell>
        <mxCell id="CbHZo5Q5kGhW6boUcu4r-10" style="edgeStyle=orthogonalEdgeStyle;rounded=0;orthogonalLoop=1;jettySize=auto;html=1;exitX=0;exitY=0.5;exitDx=0;exitDy=0;endArrow=none;endFill=0;" edge="1" parent="1" source="CbHZo5Q5kGhW6boUcu4r-8">
          <mxGeometry relative="1" as="geometry">
            <mxPoint x="100" y="160" as="targetPoint" />
          </mxGeometry>
        </mxCell>
        <mxCell id="CbHZo5Q5kGhW6boUcu4r-8" value="&lt;pre style=&quot;margin-top: 0px; margin-bottom: 0px;&quot;&gt;toolBar &lt;b&gt;RowLayout&lt;/b&gt;&lt;/pre&gt;" style="rounded=1;whiteSpace=wrap;html=1;fillColor=#f8cecc;strokeColor=#b85450;" vertex="1" parent="1">
          <mxGeometry x="130" y="140" width="560" height="40" as="geometry" />
        </mxCell>
        <mxCell id="CbHZo5Q5kGhW6boUcu4r-9" value="" style="endArrow=none;html=1;rounded=0;exitX=0.5;exitY=0;exitDx=0;exitDy=0;entryX=0.5;entryY=1;entryDx=0;entryDy=0;" edge="1" parent="1" source="CbHZo5Q5kGhW6boUcu4r-8" target="CbHZo5Q5kGhW6boUcu4r-2">
          <mxGeometry width="50" height="50" relative="1" as="geometry">
            <mxPoint x="400" y="70" as="sourcePoint" />
            <mxPoint x="450" y="20" as="targetPoint" />
          </mxGeometry>
        </mxCell>
        <mxCell id="CbHZo5Q5kGhW6boUcu4r-13" value="&lt;pre style=&quot;margin-top: 0px; margin-bottom: 0px;&quot;&gt;filtersAndTabsBar &lt;b&gt;RowLayout&lt;/b&gt;&lt;/pre&gt;" style="rounded=1;whiteSpace=wrap;html=1;fillColor=#f8cecc;strokeColor=#b85450;horizontal=1;verticalAlign=top;" vertex="1" parent="1">
          <mxGeometry x="130" y="190" width="560" height="70" as="geometry" />
        </mxCell>
        <mxCell id="CbHZo5Q5kGhW6boUcu4r-14" value="" style="endArrow=none;html=1;rounded=0;exitX=0.5;exitY=0;exitDx=0;exitDy=0;entryX=0.5;entryY=1;entryDx=0;entryDy=0;" edge="1" parent="1" source="CbHZo5Q5kGhW6boUcu4r-13" target="CbHZo5Q5kGhW6boUcu4r-8">
          <mxGeometry width="50" height="50" relative="1" as="geometry">
            <mxPoint x="400" y="120" as="sourcePoint" />
            <mxPoint x="360" y="180" as="targetPoint" />
          </mxGeometry>
        </mxCell>
        <mxCell id="CbHZo5Q5kGhW6boUcu4r-15" value="&lt;pre style=&quot;border-color: var(--border-color); margin-top: 0px; margin-bottom: 0px;&quot;&gt;&lt;b style=&quot;border-color: var(--border-color);&quot;&gt;RowLayout&lt;/b&gt;&lt;/pre&gt;" style="rounded=1;whiteSpace=wrap;html=1;fillColor=#f8cecc;strokeColor=#b85450;verticalAlign=top;" vertex="1" parent="1">
          <mxGeometry x="130" y="270" width="560" height="170" as="geometry" />
        </mxCell>
        <mxCell id="CbHZo5Q5kGhW6boUcu4r-16" value="&lt;pre style=&quot;margin-top: 0px; margin-bottom: 0px;&quot;&gt;imagettes&lt;/pre&gt;" style="rounded=1;whiteSpace=wrap;html=1;fillColor=#f8cecc;strokeColor=#b85450;" vertex="1" parent="1">
          <mxGeometry x="130" y="450" width="560" height="40" as="geometry" />
        </mxCell>
        <mxCell id="CbHZo5Q5kGhW6boUcu4r-17" value="&lt;pre style=&quot;margin-top: 0px; margin-bottom: 0px;&quot;&gt;bottomToolBar&lt;/pre&gt;" style="rounded=1;whiteSpace=wrap;html=1;fillColor=#f8cecc;strokeColor=#b85450;" vertex="1" parent="1">
          <mxGeometry x="130" y="500" width="560" height="40" as="geometry" />
        </mxCell>
        <mxCell id="CbHZo5Q5kGhW6boUcu4r-18" value="" style="endArrow=none;html=1;rounded=0;exitX=0.5;exitY=1;exitDx=0;exitDy=0;entryX=0.5;entryY=1;entryDx=0;entryDy=0;" edge="1" parent="1" source="CbHZo5Q5kGhW6boUcu4r-17" target="CbHZo5Q5kGhW6boUcu4r-1">
          <mxGeometry width="50" height="50" relative="1" as="geometry">
            <mxPoint x="460" y="530" as="sourcePoint" />
            <mxPoint x="510" y="480" as="targetPoint" />
          </mxGeometry>
        </mxCell>
        <mxCell id="CbHZo5Q5kGhW6boUcu4r-19" value="" style="endArrow=none;html=1;rounded=0;entryX=1;entryY=0.5;entryDx=0;entryDy=0;exitX=1.003;exitY=0.813;exitDx=0;exitDy=0;exitPerimeter=0;" edge="1" parent="1" source="CbHZo5Q5kGhW6boUcu4r-1" target="CbHZo5Q5kGhW6boUcu4r-16">
          <mxGeometry width="50" height="50" relative="1" as="geometry">
            <mxPoint x="460" y="530" as="sourcePoint" />
            <mxPoint x="510" y="480" as="targetPoint" />
          </mxGeometry>
        </mxCell>
        <mxCell id="CbHZo5Q5kGhW6boUcu4r-20" value="" style="endArrow=none;html=1;rounded=0;entryX=1;entryY=0.5;entryDx=0;entryDy=0;exitX=1.003;exitY=0.813;exitDx=0;exitDy=0;exitPerimeter=0;" edge="1" parent="1">
          <mxGeometry width="50" height="50" relative="1" as="geometry">
            <mxPoint x="132" y="469.66" as="sourcePoint" />
            <mxPoint x="100" y="469.66" as="targetPoint" />
          </mxGeometry>
        </mxCell>
        <mxCell id="CbHZo5Q5kGhW6boUcu4r-21" value="" style="endArrow=none;html=1;rounded=0;exitX=0.5;exitY=1;exitDx=0;exitDy=0;entryX=0.5;entryY=0;entryDx=0;entryDy=0;" edge="1" parent="1" source="CbHZo5Q5kGhW6boUcu4r-16" target="CbHZo5Q5kGhW6boUcu4r-17">
          <mxGeometry width="50" height="50" relative="1" as="geometry">
            <mxPoint x="420" y="550" as="sourcePoint" />
            <mxPoint x="420" y="570" as="targetPoint" />
          </mxGeometry>
        </mxCell>
        <mxCell id="CbHZo5Q5kGhW6boUcu4r-22" value="" style="endArrow=none;html=1;rounded=0;entryX=0.5;entryY=0;entryDx=0;entryDy=0;exitX=0.5;exitY=0;exitDx=0;exitDy=0;" edge="1" parent="1" source="CbHZo5Q5kGhW6boUcu4r-1" target="CbHZo5Q5kGhW6boUcu4r-2">
          <mxGeometry width="50" height="50" relative="1" as="geometry">
            <mxPoint x="400" y="180" as="sourcePoint" />
            <mxPoint x="450" y="130" as="targetPoint" />
          </mxGeometry>
        </mxCell>
        <mxCell id="CbHZo5Q5kGhW6boUcu4r-23" value="&lt;pre style=&quot;margin-top: 0px; margin-bottom: 0px;&quot;&gt;checkBox1&lt;/pre&gt;" style="rounded=1;whiteSpace=wrap;html=1;fillColor=#d5e8d4;strokeColor=#82b366;" vertex="1" parent="1">
          <mxGeometry x="140" y="210" width="70" height="30" as="geometry" />
        </mxCell>
        <mxCell id="CbHZo5Q5kGhW6boUcu4r-24" value="&lt;pre style=&quot;margin-top: 0px; margin-bottom: 0px;&quot;&gt;checkBox2&lt;/pre&gt;" style="rounded=1;whiteSpace=wrap;html=1;fillColor=#d5e8d4;strokeColor=#82b366;" vertex="1" parent="1">
          <mxGeometry x="220" y="210" width="70" height="30" as="geometry" />
        </mxCell>
        <mxCell id="CbHZo5Q5kGhW6boUcu4r-25" value="&lt;pre style=&quot;margin-top: 0px; margin-bottom: 0px;&quot;&gt;tabBar&lt;/pre&gt;" style="rounded=1;whiteSpace=wrap;html=1;fillColor=#d5e8d4;strokeColor=#82b366;" vertex="1" parent="1">
          <mxGeometry x="300" y="210" width="380" height="30" as="geometry" />
        </mxCell>
        <mxCell id="CbHZo5Q5kGhW6boUcu4r-26" value="&lt;pre style=&quot;margin-top: 0px; margin-bottom: 0px;&quot;&gt;listViewFrame&lt;/pre&gt;" style="rounded=1;whiteSpace=wrap;html=1;fillColor=#d5e8d4;strokeColor=#82b366;" vertex="1" parent="1">
          <mxGeometry x="140" y="290" width="150" height="140" as="geometry" />
        </mxCell>
        <mxCell id="CbHZo5Q5kGhW6boUcu4r-27" value="&lt;pre style=&quot;margin-top: 0px; margin-bottom: 0px;&quot;&gt;tabbedPage&lt;/pre&gt;&lt;pre style=&quot;margin-top: 0px; margin-bottom: 0px;&quot;&gt;&lt;br&gt;&lt;/pre&gt;&lt;pre style=&quot;margin-top: 0px; margin-bottom: 0px;&quot;&gt;&lt;b&gt;StackLayout&lt;/b&gt;&lt;/pre&gt;" style="rounded=1;whiteSpace=wrap;html=1;fillColor=#d5e8d4;strokeColor=#82b366;" vertex="1" parent="1">
          <mxGeometry x="300" y="290" width="380" height="140" as="geometry" />
        </mxCell>
        <mxCell id="CbHZo5Q5kGhW6boUcu4r-28" value="Window&amp;nbsp; &amp;nbsp;(anchors)" style="text;html=1;strokeColor=none;fillColor=none;align=center;verticalAlign=middle;whiteSpace=wrap;rounded=0;" vertex="1" parent="1">
          <mxGeometry x="95" y="50" width="160" height="30" as="geometry" />
        </mxCell>
        <mxCell id="CbHZo5Q5kGhW6boUcu4r-29" value="&lt;pre style=&quot;margin-top: 0px; margin-bottom: 0px;&quot;&gt;width:&lt;span style=&quot;color:#c0c0c0;&quot;&gt; &lt;/span&gt;&lt;span style=&quot;font-style:italic;&quot;&gt;parent&lt;/span&gt;.width&lt;/pre&gt;" style="text;html=1;strokeColor=none;fillColor=none;align=center;verticalAlign=middle;whiteSpace=wrap;rounded=0;" vertex="1" parent="1">
          <mxGeometry x="530" y="145" width="160" height="30" as="geometry" />
        </mxCell>
        <mxCell id="CbHZo5Q5kGhW6boUcu4r-30" value="&lt;pre style=&quot;margin-top: 0px; margin-bottom: 0px;&quot;&gt;width:&lt;span style=&quot;color:#c0c0c0;&quot;&gt; &lt;/span&gt;&lt;span style=&quot;font-style:italic;&quot;&gt;parent&lt;/span&gt;.width&lt;/pre&gt;" style="text;html=1;strokeColor=none;fillColor=none;align=center;verticalAlign=middle;whiteSpace=wrap;rounded=0;" vertex="1" parent="1">
          <mxGeometry x="530" y="230" width="160" height="30" as="geometry" />
        </mxCell>
        <mxCell id="CbHZo5Q5kGhW6boUcu4r-31" value="" style="endArrow=none;html=1;rounded=0;exitX=-0.001;exitY=0.562;exitDx=0;exitDy=0;exitPerimeter=0;entryX=0.002;entryY=0.471;entryDx=0;entryDy=0;entryPerimeter=0;" edge="1" parent="1" source="CbHZo5Q5kGhW6boUcu4r-1" target="CbHZo5Q5kGhW6boUcu4r-15">
          <mxGeometry width="50" height="50" relative="1" as="geometry">
            <mxPoint x="80" y="390" as="sourcePoint" />
            <mxPoint x="130" y="340" as="targetPoint" />
          </mxGeometry>
        </mxCell>
        <mxCell id="CbHZo5Q5kGhW6boUcu4r-32" value="" style="endArrow=none;html=1;rounded=0;exitX=0.5;exitY=1;exitDx=0;exitDy=0;entryX=0.5;entryY=0;entryDx=0;entryDy=0;" edge="1" parent="1" source="CbHZo5Q5kGhW6boUcu4r-15" target="CbHZo5Q5kGhW6boUcu4r-16">
          <mxGeometry width="50" height="50" relative="1" as="geometry">
            <mxPoint x="400" y="310" as="sourcePoint" />
            <mxPoint x="450" y="260" as="targetPoint" />
          </mxGeometry>
        </mxCell>
        <mxCell id="CbHZo5Q5kGhW6boUcu4r-33" value="" style="endArrow=none;html=1;rounded=0;exitX=0.5;exitY=0;exitDx=0;exitDy=0;entryX=0.5;entryY=1;entryDx=0;entryDy=0;" edge="1" parent="1" source="CbHZo5Q5kGhW6boUcu4r-15" target="CbHZo5Q5kGhW6boUcu4r-13">
          <mxGeometry width="50" height="50" relative="1" as="geometry">
            <mxPoint x="400" y="310" as="sourcePoint" />
            <mxPoint x="450" y="260" as="targetPoint" />
          </mxGeometry>
        </mxCell>
        <mxCell id="CbHZo5Q5kGhW6boUcu4r-34" value="" style="endArrow=none;html=1;rounded=0;exitX=1.002;exitY=0.461;exitDx=0;exitDy=0;exitPerimeter=0;entryX=1.004;entryY=0.558;entryDx=0;entryDy=0;entryPerimeter=0;" edge="1" parent="1" source="CbHZo5Q5kGhW6boUcu4r-15" target="CbHZo5Q5kGhW6boUcu4r-1">
          <mxGeometry width="50" height="50" relative="1" as="geometry">
            <mxPoint x="400" y="310" as="sourcePoint" />
            <mxPoint x="450" y="260" as="targetPoint" />
          </mxGeometry>
        </mxCell>
        <mxCell id="CbHZo5Q5kGhW6boUcu4r-35" value="&lt;pre style=&quot;margin-top: 0px; margin-bottom: 0px;&quot;&gt;width:&lt;span style=&quot;color:#c0c0c0;&quot;&gt; &lt;/span&gt;&lt;span style=&quot;font-style:italic;&quot;&gt;parent&lt;/span&gt;.width&lt;/pre&gt;" style="text;html=1;strokeColor=none;fillColor=none;align=center;verticalAlign=middle;whiteSpace=wrap;rounded=0;" vertex="1" parent="1">
          <mxGeometry x="530" y="510" width="160" height="30" as="geometry" />
        </mxCell>
        <mxCell id="CbHZo5Q5kGhW6boUcu4r-36" value="&lt;pre style=&quot;margin-top: 0px; margin-bottom: 0px;&quot;&gt;height: 120&lt;/pre&gt;" style="text;html=1;strokeColor=none;fillColor=none;align=center;verticalAlign=middle;whiteSpace=wrap;rounded=0;" vertex="1" parent="1">
          <mxGeometry x="590" y="455" width="90" height="30" as="geometry" />
        </mxCell>
      </root>
    </mxGraphModel>
  </diagram>
  <diagram id="OFQUL5X0LQNiIFi3YVKk" name="Preview Tab">
    <mxGraphModel dx="1036" dy="614" grid="1" gridSize="10" guides="1" tooltips="1" connect="1" arrows="1" fold="1" page="1" pageScale="1" pageWidth="827" pageHeight="1169" math="0" shadow="0">
      <root>
        <mxCell id="0" />
        <mxCell id="1" parent="0" />
        <mxCell id="PIZaF98u6WkX7ZVSyT8i-2" value="RowLayout&lt;br&gt;&lt;br&gt;&lt;pre style=&quot;margin-top: 0px; margin-bottom: 0px;&quot;&gt;anchors.fill:&lt;span style=&quot;color:#c0c0c0;&quot;&gt; &lt;/span&gt;&lt;span style=&quot;font-style:italic;&quot;&gt;parent (??)&lt;/span&gt;&lt;/pre&gt;" style="whiteSpace=wrap;html=1;aspect=fixed;fillColor=#dae8fc;strokeColor=#6c8ebf;verticalAlign=top;" vertex="1" parent="1">
          <mxGeometry x="120" y="80" width="520" height="520" as="geometry" />
        </mxCell>
        <mxCell id="PIZaF98u6WkX7ZVSyT8i-3" value="PREVIEW TAB" style="text;html=1;strokeColor=none;fillColor=none;align=center;verticalAlign=middle;whiteSpace=wrap;rounded=0;" vertex="1" parent="1">
          <mxGeometry x="120" y="50" width="130" height="30" as="geometry" />
        </mxCell>
        <mxCell id="PIZaF98u6WkX7ZVSyT8i-4" value="&lt;pre style=&quot;margin-top: 0px; margin-bottom: 0px;&quot;&gt;Item&lt;/pre&gt;&lt;pre style=&quot;margin-top: 0px; margin-bottom: 0px;&quot;&gt;Layout.fillWidth:&lt;span style=&quot;color:#c0c0c0;&quot;&gt; &lt;/span&gt;true&lt;/pre&gt;" style="rounded=1;whiteSpace=wrap;html=1;fillColor=#ffe6cc;strokeColor=#d79b00;verticalAlign=top;" vertex="1" parent="1">
          <mxGeometry x="140" y="160" width="310" height="320" as="geometry" />
        </mxCell>
        <mxCell id="PIZaF98u6WkX7ZVSyT8i-5" value="&lt;pre style=&quot;margin-top: 0px; margin-bottom: 0px;&quot;&gt;zonePreview&lt;/pre&gt;&lt;pre style=&quot;margin-top: 0px; margin-bottom: 0px;&quot;&gt;&lt;br&gt;&lt;/pre&gt;&lt;pre style=&quot;margin-top: 0px; margin-bottom: 0px;&quot;&gt;Layout.alignment:&lt;span style=&quot;color:#c0c0c0;&quot;&gt; &lt;/span&gt;&lt;/pre&gt;&lt;pre style=&quot;margin-top: 0px; margin-bottom: 0px;&quot;&gt;&lt;span style=&quot;font-style:italic; color:#0055af;&quot;&gt;Qt&lt;/span&gt;.AlignRight&lt;/pre&gt;" style="rounded=1;whiteSpace=wrap;html=1;fillColor=#ffe6cc;strokeColor=#d79b00;verticalAlign=top;" vertex="1" parent="1">
          <mxGeometry x="480" y="160" width="150" height="170" as="geometry" />
        </mxCell>
        <mxCell id="FkDoOXgXVIrGlZoqcDmt-1" value="&lt;pre style=&quot;border-color: var(--border-color); margin-top: 0px; margin-bottom: 0px;&quot;&gt;previewImage&lt;/pre&gt;&lt;pre style=&quot;border-color: var(--border-color); margin-top: 0px; margin-bottom: 0px;&quot;&gt;&lt;br style=&quot;border-color: var(--border-color);&quot;&gt;&lt;/pre&gt;&lt;pre style=&quot;border-color: var(--border-color); margin-top: 0px; margin-bottom: 0px;&quot;&gt;anchors.centerIn: parent&lt;/pre&gt;" style="rounded=1;whiteSpace=wrap;html=1;fillColor=#ffe6cc;strokeColor=#d79b00;" vertex="1" parent="1">
          <mxGeometry x="200" y="250" width="190" height="160" as="geometry" />
        </mxCell>
      </root>
    </mxGraphModel>
  </diagram>
  <diagram name="Map Tab" id="dfuJukzE3hP5hs-_Yb47">
    <mxGraphModel dx="1036" dy="614" grid="1" gridSize="10" guides="1" tooltips="1" connect="1" arrows="1" fold="1" page="1" pageScale="1" pageWidth="827" pageHeight="1169" math="0" shadow="0">
      <root>
        <mxCell id="Ycl33Z8cpXIW11Gbhpba-0" />
        <mxCell id="Ycl33Z8cpXIW11Gbhpba-1" parent="Ycl33Z8cpXIW11Gbhpba-0" />
        <mxCell id="Ycl33Z8cpXIW11Gbhpba-2" value="GridLayout (2x4)&lt;br&gt;&lt;br&gt;&lt;pre style=&quot;margin-top: 0px; margin-bottom: 0px;&quot;&gt;Layout.fillWidth:&lt;span style=&quot;color:#c0c0c0;&quot;&gt; &lt;/span&gt;true&lt;/pre&gt;" style="whiteSpace=wrap;html=1;aspect=fixed;fillColor=#dae8fc;strokeColor=#6c8ebf;verticalAlign=top;" vertex="1" parent="Ycl33Z8cpXIW11Gbhpba-1">
          <mxGeometry x="120" y="80" width="520" height="520" as="geometry" />
        </mxCell>
        <mxCell id="Ycl33Z8cpXIW11Gbhpba-3" value="MAP TAB" style="text;html=1;strokeColor=none;fillColor=none;align=center;verticalAlign=middle;whiteSpace=wrap;rounded=0;" vertex="1" parent="Ycl33Z8cpXIW11Gbhpba-1">
          <mxGeometry x="120" y="50" width="130" height="30" as="geometry" />
        </mxCell>
        <mxCell id="Ycl33Z8cpXIW11Gbhpba-4" value="&lt;pre style=&quot;margin-top: 0px; margin-bottom: 0px;&quot;&gt;mapTools&lt;/pre&gt;&lt;pre style=&quot;margin-top: 0px; margin-bottom: 0px;&quot;&gt;&lt;br&gt;&lt;/pre&gt;&lt;pre style=&quot;margin-top: 0px; margin-bottom: 0px;&quot;&gt;Layout.fillWidth:&lt;span style=&quot;color:#c0c0c0;&quot;&gt; &lt;/span&gt;true&lt;/pre&gt;" style="rounded=1;whiteSpace=wrap;html=1;fillColor=#ffe6cc;strokeColor=#d79b00;verticalAlign=top;" vertex="1" parent="Ycl33Z8cpXIW11Gbhpba-1">
          <mxGeometry x="135" y="140" width="490" height="70" as="geometry" />
        </mxCell>
        <mxCell id="Ycl33Z8cpXIW11Gbhpba-5" value="&lt;pre style=&quot;margin-top: 0px; margin-bottom: 0px;&quot;&gt;mapView&lt;/pre&gt;&lt;pre style=&quot;margin-top: 0px; margin-bottom: 0px;&quot;&gt;&lt;br&gt;&lt;/pre&gt;&lt;pre style=&quot;margin-top: 0px; margin-bottom: 0px;&quot;&gt;Layout.fillWidth:&lt;span style=&quot;color:#c0c0c0;&quot;&gt; &lt;/span&gt;true&lt;/pre&gt;&lt;pre style=&quot;margin-top: 0px; margin-bottom: 0px;&quot;&gt;Layout.fillHeight:&lt;span style=&quot;color:#c0c0c0;&quot;&gt; &lt;/span&gt;true&lt;/pre&gt;" style="rounded=1;whiteSpace=wrap;html=1;fillColor=#ffe6cc;strokeColor=#d79b00;verticalAlign=top;" vertex="1" parent="Ycl33Z8cpXIW11Gbhpba-1">
          <mxGeometry x="140" y="230" width="280" height="360" as="geometry" />
        </mxCell>
        <mxCell id="ZokwWRf4PxKREvUrPuPI-0" value="" style="endArrow=none;dashed=1;html=1;rounded=0;exitX=-0.003;exitY=0.275;exitDx=0;exitDy=0;exitPerimeter=0;entryX=1.006;entryY=0.272;entryDx=0;entryDy=0;entryPerimeter=0;" edge="1" parent="Ycl33Z8cpXIW11Gbhpba-1" source="Ycl33Z8cpXIW11Gbhpba-2" target="Ycl33Z8cpXIW11Gbhpba-2">
          <mxGeometry width="50" height="50" relative="1" as="geometry">
            <mxPoint x="390" y="340" as="sourcePoint" />
            <mxPoint x="440" y="290" as="targetPoint" />
          </mxGeometry>
        </mxCell>
        <mxCell id="ZokwWRf4PxKREvUrPuPI-1" value="" style="endArrow=none;dashed=1;html=1;rounded=0;exitX=-0.003;exitY=0.275;exitDx=0;exitDy=0;exitPerimeter=0;entryX=1.006;entryY=0.272;entryDx=0;entryDy=0;entryPerimeter=0;" edge="1" parent="Ycl33Z8cpXIW11Gbhpba-1">
          <mxGeometry width="50" height="50" relative="1" as="geometry">
            <mxPoint x="120" y="391" as="sourcePoint" />
            <mxPoint x="645" y="389" as="targetPoint" />
          </mxGeometry>
        </mxCell>
        <mxCell id="ZokwWRf4PxKREvUrPuPI-2" value="" style="endArrow=none;dashed=1;html=1;rounded=0;exitX=-0.003;exitY=0.275;exitDx=0;exitDy=0;exitPerimeter=0;entryX=1.006;entryY=0.272;entryDx=0;entryDy=0;entryPerimeter=0;" edge="1" parent="Ycl33Z8cpXIW11Gbhpba-1">
          <mxGeometry width="50" height="50" relative="1" as="geometry">
            <mxPoint x="120" y="502" as="sourcePoint" />
            <mxPoint x="645" y="500" as="targetPoint" />
          </mxGeometry>
        </mxCell>
        <mxCell id="ZokwWRf4PxKREvUrPuPI-3" value="" style="endArrow=none;dashed=1;html=1;rounded=0;exitX=0.602;exitY=-0.002;exitDx=0;exitDy=0;exitPerimeter=0;entryX=0.6;entryY=1.013;entryDx=0;entryDy=0;entryPerimeter=0;" edge="1" parent="Ycl33Z8cpXIW11Gbhpba-1" source="Ycl33Z8cpXIW11Gbhpba-2" target="Ycl33Z8cpXIW11Gbhpba-2">
          <mxGeometry width="50" height="50" relative="1" as="geometry">
            <mxPoint x="148" y="253" as="sourcePoint" />
            <mxPoint x="673" y="251" as="targetPoint" />
          </mxGeometry>
        </mxCell>
        <mxCell id="ZokwWRf4PxKREvUrPuPI-4" value="Zone1&lt;br&gt;&lt;pre style=&quot;margin-top: 0px; margin-bottom: 0px;&quot;&gt;Layout.fillHeight:&lt;span style=&quot;color:#c0c0c0;&quot;&gt; &lt;/span&gt;true&lt;/pre&gt;" style="rounded=1;whiteSpace=wrap;html=1;fillColor=#ffe6cc;strokeColor=#d79b00;verticalAlign=top;" vertex="1" parent="Ycl33Z8cpXIW11Gbhpba-1">
          <mxGeometry x="440" y="230" width="190" height="150" as="geometry" />
        </mxCell>
        <mxCell id="ZokwWRf4PxKREvUrPuPI-5" value="Zone3&lt;br&gt;&lt;pre style=&quot;margin-top: 0px; margin-bottom: 0px;&quot;&gt;Layout.fillHeight:&lt;span style=&quot;color:#c0c0c0;&quot;&gt; &lt;/span&gt;true&lt;/pre&gt;" style="rounded=1;whiteSpace=wrap;html=1;fillColor=#ffe6cc;strokeColor=#d79b00;verticalAlign=top;" vertex="1" parent="Ycl33Z8cpXIW11Gbhpba-1">
          <mxGeometry x="440" y="510" width="190" height="80" as="geometry" />
        </mxCell>
        <mxCell id="ZokwWRf4PxKREvUrPuPI-6" value="Zone2&lt;br&gt;&lt;pre style=&quot;margin-top: 0px; margin-bottom: 0px;&quot;&gt;Layout.fillHeight:&lt;span style=&quot;color:#c0c0c0;&quot;&gt; &lt;/span&gt;true&lt;/pre&gt;" style="rounded=1;whiteSpace=wrap;html=1;fillColor=#ffe6cc;strokeColor=#d79b00;verticalAlign=top;" vertex="1" parent="Ycl33Z8cpXIW11Gbhpba-1">
          <mxGeometry x="440" y="400" width="190" height="90" as="geometry" />
        </mxCell>
        <mxCell id="ZokwWRf4PxKREvUrPuPI-7" value="ColumLayout" style="rounded=1;whiteSpace=wrap;html=1;fillColor=#ffe6cc;strokeColor=#d79b00;verticalAlign=top;" vertex="1" parent="Ycl33Z8cpXIW11Gbhpba-1">
          <mxGeometry x="450" y="270" width="170" height="100" as="geometry" />
        </mxCell>
        <mxCell id="ZokwWRf4PxKREvUrPuPI-8" value="" style="rounded=1;whiteSpace=wrap;html=1;fillColor=#d5e8d4;strokeColor=#82b366;" vertex="1" parent="Ycl33Z8cpXIW11Gbhpba-1">
          <mxGeometry x="470" y="345" width="130" height="20" as="geometry" />
        </mxCell>
        <mxCell id="ZokwWRf4PxKREvUrPuPI-9" value="" style="rounded=1;whiteSpace=wrap;html=1;fillColor=#d5e8d4;strokeColor=#82b366;" vertex="1" parent="Ycl33Z8cpXIW11Gbhpba-1">
          <mxGeometry x="470" y="320" width="130" height="20" as="geometry" />
        </mxCell>
        <mxCell id="ZokwWRf4PxKREvUrPuPI-10" value="" style="rounded=1;whiteSpace=wrap;html=1;fillColor=#d5e8d4;strokeColor=#82b366;" vertex="1" parent="Ycl33Z8cpXIW11Gbhpba-1">
          <mxGeometry x="470" y="295" width="130" height="20" as="geometry" />
        </mxCell>
      </root>
    </mxGraphModel>
  </diagram>
</mxfile>
